<?xml version="1.0" standalone="no"?>
<!DOCTYPE svg PUBLIC "-//W3C//DTD SVG 20010904//EN" "http://www.w3.org/TR/2001/REC-SVG-20010904/DTD/svg10.dtd">
<svg version="1.0" xmlns="http://www.w3.org/2000/svg" viewBox="0 0 512.000000 512.000000"
    preserveAspectRatio="xMidYMid meet">

    <g transform="translate(0.000000,512.000000) scale(0.100000,-0.100000)" fill="#000000" stroke="none">
        <path d="M2047 4786 c-49 -18 -100 -58 -125 -98 -11 -18 -42 -116 -67 -218
-57 -225 -59 -292 -9 -362 16 -23 51 -56 78 -72 42 -27 59 -31 142 -34 l94 -4
0 -78 0 -78 -187 -4 c-166 -5 -197 -8 -265 -30 -118 -39 -204 -92 -294 -182
-89 -90 -142 -174 -183 -294 l-26 -77 -3 -987 -3 -988 241 0 240 0 0 936 c0
706 3 947 12 978 16 55 99 138 154 154 31 9 215 12 714 12 499 0 683 -3 714
-12 55 -16 138 -99 154 -154 9 -31 12 -272 12 -978 l0 -936 240 0 241 0 -3
988 -3 987 -27 80 c-40 116 -92 199 -183 290 -92 92 -176 144 -290 182 -72 23
-100 26 -267 31 l-188 4 0 78 0 78 93 4 c104 5 156 25 202 80 70 82 71 144 8
394 -52 209 -73 249 -153 294 l-45 25 -490 2 c-392 2 -498 0 -528 -11z m753
-866 l0 -80 -240 0 -240 0 0 80 0 80 240 0 240 0 0 -80z" />
        <path d="M1865 3175 l-25 -24 0 -296 0 -295 720 0 720 0 0 295 0 296 -25 24
-24 25 -671 0 -671 0 -24 -25z" />
        <path d="M1840 1840 l0 -560 720 0 720 0 0 560 0 560 -720 0 -720 0 0 -560z" />
        <path d="M1094 1106 c-142 -45 -233 -183 -221 -334 7 -93 78 -234 157 -311 64
-63 155 -113 238 -130 75 -15 2510 -15 2584 0 152 32 266 127 345 286 46 93
48 100 48 182 0 66 -5 97 -22 133 -27 60 -101 133 -161 161 l-47 22 -1440 2
c-1153 1 -1448 -1 -1481 -11z" />
    </g>
</svg>