<?xml version="1.0" encoding="UTF-8"?>
<svg version="1.1" viewBox="0 0 700 700" xmlns="http://www.w3.org/2000/svg" xmlns:xlink="http://www.w3.org/1999/xlink">
    <g>
        <path
            d="m336.76 72.973c57.055-3.9062 111.77 14.066 154.75 51.582 39.859 34.391 65.652 82.066 71.906 134.43l-33.609-22.664-6.2539 9.3789 48.457 32.824 32.824-48.457-9.3789-6.2539-21.102 30.48c-7.8164-53.93-34.387-102.39-75.812-138.34-45.332-39.078-103.95-58.617-164.13-54.711-108.64 7.8203-198.52 96.922-207.89 207.12l11.723 0.78125c8.5977-104.73 93.789-188.36 198.52-196.18z" />
        <path
            d="m367.25 499.71c-113.33 7.8164-212.59-74.25-227.44-185.23l31.262 23.445 7.0352-9.3789-46.895-35.168-35.172 46.895 9.3789 7.0352 22.668-29.703c7.8164 53.93 33.605 103.17 75.812 139.12 41.422 35.953 93.008 55.492 147.72 55.492 5.4727 0 10.941 0 16.414-0.78125 111.77-7.8164 201.65-98.477 209.46-210.24l-11.723-0.78125c-7.8203 106.29-93.012 191.48-198.52 199.3z" />
        <path
            d="m370.1 192.77-2.8086-2.8086c-1.3789-1.3789-3.5742-1.5-5.0977-0.28516l-9.7109 7.7656 15.477 3.4375 2.418-3.0195c1.2227-1.5195 1.1016-3.7109-0.27734-5.0898z" />
        <path
            d="m312.71 181.29-2.8086-2.8086c-1.3828-1.3828-3.5742-1.5-5.0977-0.28516l-8.4648 6.7734 15.098 3.3555 1.5547-1.9414c1.2188-1.5195 1.0977-3.7148-0.28125-5.0938z" />
        <path
            d="m220.74 327.84-5.0898 5.0898 47.285 33.773 25.707-34.891-61.73-6.1758c-2.2852-0.23047-4.5508 0.58203-6.1719 2.2031z" />
        <path
            d="m235.64 179.04-8.5078 8.5078 91.824 38.262 39.758 27.523 41.375-41.379-157.38-34.973c-2.5547-0.56641-5.2227 0.20703-7.0703 2.0586z" />
        <path d="m273.7 377.47 33.777 47.285 5.0898-5.0898c1.6211-1.6211 2.4336-3.8867 2.2031-6.1719l-6.1758-61.73z" />
        <path
            d="m461.92 330.51-2.8086-2.8086c-1.3789-1.3789-3.5742-1.5-5.0977-0.28516l-1.9414 1.5508 3.3555 15.098 6.7734-8.4648c1.2188-1.5156 1.0938-3.7109-0.28125-5.0898z" />
        <path
            d="m450.44 273.12-2.8086-2.8086c-1.3789-1.3789-3.5742-1.5-5.0977-0.28516l-3.0234 2.418 3.4414 15.48 7.7656-9.7109c1.2227-1.5195 1.1016-3.7148-0.27734-5.0938z" />
        <path
            d="m387.08 281.69 27.523 39.758 38.262 91.824 8.5078-8.5117c1.8516-1.8477 2.625-4.5195 2.0586-7.0703l-34.973-157.38z" />
        <path
            d="m468.17 176.06c0-2.1133-1.7148-3.8242-3.8242-3.8242h-0.10938c-12.172 0-23.855 4.8398-32.461 13.449l-114.19 114.19c-1.6289 1.6289-3.1328 3.3789-4.5 5.2344l-51.512 69.906v3.8242h3.8242l69.91-51.512c1.8516-1.3633 3.6016-2.8672 5.2305-4.5l114.19-114.19c8.6133-8.6094 13.449-20.285 13.449-32.465zm-8.6094 18.777c-0.46875 0.59375-0.97656 1.1641-1.5195 1.707 0 0 5.7539-8.2227 2.2422-14.945-0.32422-0.62109-0.85938-1.1562-1.4805-1.4805-5.8828-3.0703-12.914 0.94922-14.578 2-0.17969 0.11328-0.29688 0.19141-0.34375 0.22266-0.015625 0.011719-0.023437 0.015625-0.023437 0.015625 0.27344-0.27344 0.55078-0.53516 0.83594-0.78906 4.2773-3.8008 9.9023-5.4648 15.473-4.6953 0.4375 0.058594 0.84766 0.19141 1.2266 0.38281 1.1328 0.57031 1.9531 1.6719 2.1328 2.9766 0.41016 2.9688 0.12891 5.957-0.80078 8.7461-0.69531 2.0977-1.7578 4.0781-3.1641 5.8594z" />
        <path d="m444.22 182.12c1.6641-1.0547 8.6953-5.0703 14.578-2-5.8828-3.0703-12.91 0.94531-14.578 2z" />
        <path
            d="m458.8 180.12c0.61719 0.32422 1.1523 0.85547 1.4805 1.4805-0.32422-0.625-0.85938-1.1562-1.4805-1.4805z" />
        <path
            d="m444.22 182.12c-0.17969 0.11328-0.29688 0.19141-0.34375 0.22266 0.046875-0.03125 0.16797-0.10938 0.34375-0.22266z" />
        <path
            d="m463.53 180.24c-0.17969-1.3047-1-2.4062-2.1328-2.9766 1.1328 0.57031 1.9531 1.6719 2.1328 2.9766 0.40625 2.9688 0.125 5.957-0.80078 8.7461 0.92969-2.7891 1.2109-5.7773 0.80078-8.7461z" />
        <use x="72.664062" y="573.976562" xlink:href="#y" />
        <use x="76.085938" y="573.976562" xlink:href="#a" />
        <use x="78.382812" y="573.976562" xlink:href="#c" />
        <use x="81.542969" y="573.976562" xlink:href="#b" />
        <use x="84.6875" y="573.976562" xlink:href="#e" />
        <use x="86.914062" y="573.976562" xlink:href="#c" />
        <use x="90.074219" y="573.976562" xlink:href="#m" />
        <use x="95.03125" y="573.976562" xlink:href="#l" />
        <use x="98.363281" y="573.976562" xlink:href="#k" />
        <use x="103.023438" y="573.976562" xlink:href="#j" />
        <use x="106.574219" y="573.976562" xlink:href="#d" />
        <use x="109.890625" y="573.976562" xlink:href="#a" />
        <use x="112.1875" y="573.976562" xlink:href="#b" />
        <use x="115.332031" y="573.976562" xlink:href="#g" />
        <use x="120.054688" y="573.976562" xlink:href="#x" />
        <use x="123.664062" y="573.976562" xlink:href="#d" />
        <use x="126.980469" y="573.976562" xlink:href="#i" />
        <use x="129.742188" y="573.976562" xlink:href="#d" />
        <use x="133.058594" y="573.976562" xlink:href="#g" />
        <use x="136.15625" y="573.976562" xlink:href="#w" />
        <use x="139.492188" y="573.976562" xlink:href="#b" />
        <use x="142.636719" y="573.976562" xlink:href="#a" />
        <use x="144.933594" y="573.976562" xlink:href="#h" />
        <use x="149.789062" y="573.976562" xlink:href="#b" />
        <use x="152.929688" y="573.976562" xlink:href="#g" />
        <use x="156.03125" y="573.976562" xlink:href="#v" />
        <use x="158.800781" y="573.976562" xlink:href="#u" />
        <use x="160.398438" y="573.976562" xlink:href="#t" />
        <use x="72.664062" y="578.636719" xlink:href="#s" />
        <use x="74.691406" y="578.636719" xlink:href="#a" />
        <use x="76.988281" y="578.636719" xlink:href="#f" />
        <use x="80.191406" y="578.636719" xlink:href="#h" />
        <use x="86.667969" y="578.636719" xlink:href="#e" />
        <use x="88.894531" y="578.636719" xlink:href="#r" />
        <use x="92.210937" y="578.636719" xlink:href="#c" />
        <use x="96.992188" y="578.636719" xlink:href="#q" />
        <use x="100.890625" y="578.636719" xlink:href="#f" />
        <use x="104.09375" y="578.636719" xlink:href="#d" />
        <use x="107.410156" y="578.636719" xlink:href="#p" />
        <use x="112.347656" y="578.636719" xlink:href="#o" />
        <use x="115.761719" y="578.636719" xlink:href="#a" />
        <use x="118.058594" y="578.636719" xlink:href="#f" />
        <use x="121.261719" y="578.636719" xlink:href="#n" />
        <use x="122.859375" y="578.636719" xlink:href="#c" />
        <use x="126.015625" y="578.636719" xlink:href="#i" />
        <use x="128.777344" y="578.636719" xlink:href="#e" />
    </g>
</svg>