<svg viewBox="0 0 22 16" fill="none" xmlns="http://www.w3.org/2000/svg">
    <path
        d="M17.1799 7H5.18465C5.072 7 4.98065 7.06997 4.98065 7.15625V8.84375C4.98065 8.93003 5.072 9 5.18465 9H17.1799C17.2926 9 17.3839 8.93003 17.3839 8.84375V7.15625C17.3839 7.06997 17.2926 7 17.1799 7Z"
        fill="currentColor" />
    <path
        d="M19.0159 0H3.34864C1.90652 0 0.737427 0.895438 0.737427 2V3.84375C0.737427 3.93003 0.828778 4 0.941428 4H18.9976C19.3492 4 19.6516 4.20706 19.668 4.47606C19.6855 4.76322 19.387 5 19.0159 5H0.941428C0.828778 5 0.737427 5.06997 0.737427 5.15625V7C0.737427 8.10456 1.90652 9 3.34864 9H3.47104C3.58369 9 3.67504 8.93003 3.67504 8.84375V6.5C3.67504 6.22384 3.9673 6 4.32785 6H18.0367C18.3973 6 18.6895 6.22384 18.6895 6.5V8.84375C18.6895 8.93003 18.7809 9 18.8935 9H19.0159C20.4581 9 21.6271 8.10456 21.6271 7V2C21.6271 0.895438 20.4581 0 19.0159 0ZM15.7519 2.75C15.3912 2.75 15.0991 2.52625 15.0991 2.25C15.0991 1.97375 15.3912 1.75 15.7519 1.75C16.1126 1.75 16.4047 1.97375 16.4047 2.25C16.4047 2.52625 16.1126 2.75 15.7519 2.75ZM18.3631 2.75C18.0025 2.75 17.7103 2.52625 17.7103 2.25C17.7103 1.97375 18.0025 1.75 18.3631 1.75C18.7238 1.75 19.0159 1.97375 19.0159 2.25C19.0159 2.52625 18.7238 2.75 18.3631 2.75Z"
        fill="currentColor" />
    <path
        d="M5.95986 9.5C5.59931 9.5 5.30705 9.72388 5.30705 10V13C5.30705 13.5514 4.72137 14 4.00145 14C3.64089 14 3.34864 14.2239 3.34864 14.5C3.34864 14.7761 3.64089 15 4.00145 15C5.44129 15 6.61266 14.1028 6.61266 13V10C6.61266 9.72388 6.32041 9.5 5.95986 9.5Z"
        fill="currentColor" />
    <path
        d="M18.6895 15C17.9696 15 17.3839 14.5514 17.3839 14V10.75C17.3839 10.4739 17.0917 10.25 16.7311 10.25C16.3706 10.25 16.0783 10.4739 16.0783 10.75V14C16.0783 15.1028 17.2497 16 18.6895 16C19.0501 16 19.3423 15.7761 19.3423 15.5C19.3423 15.2239 19.0501 15 18.6895 15Z"
        fill="currentColor" />
    <path
        d="M13.1407 15C12.4208 15 11.8351 14.5514 11.8351 14V11.25C11.8351 10.9739 11.5428 10.75 11.1823 10.75C10.8217 10.75 10.5295 10.9739 10.5295 11.25V14C10.5295 15.1028 11.7009 16 13.1407 16C13.5013 16 13.7935 15.7761 13.7935 15.5C13.7935 15.2239 13.5013 15 13.1407 15Z"
        fill="currentColor" />
    <path
        d="M8.57107 10.25C8.21052 10.25 7.91827 10.4739 7.91827 10.75V14.5C7.91827 14.7761 8.21052 15 8.57107 15C8.93162 15 9.22388 14.7761 9.22388 14.5V10.75C9.22388 10.4739 8.93162 10.25 8.57107 10.25Z"
        fill="currentColor" />
    <path
        d="M13.7935 9.5C13.433 9.5 13.1407 9.72388 13.1407 10V12.75C13.1407 13.0261 13.433 13.25 13.7935 13.25C14.1541 13.25 14.4463 13.0261 14.4463 12.75V10C14.4463 9.72388 14.1541 9.5 13.7935 9.5Z"
        fill="currentColor" />
</svg>