<svg viewBox="0 0 22 16" fill="none" xmlns="http://www.w3.org/2000/svg">
    <path
        d="M14.8343 8.52303C13.8943 7.29012 12.2934 6.55395 10.5517 6.55395C8.81004 6.55395 7.20911 7.29012 6.26927 8.52303L4.00421 11.4939C3.62841 11.9867 3.45501 12.5562 3.50266 13.1403C3.55031 13.7245 3.81472 14.2685 4.26718 14.7139C4.71997 15.1589 5.31827 15.4631 5.99737 15.5936C6.67647 15.7241 7.37262 15.6684 8.01045 15.4327L8.05316 15.4168C9.65808 14.8355 11.492 14.8408 13.0928 15.4327C13.5057 15.5853 13.9432 15.6625 14.3847 15.6625C14.6247 15.6625 14.8662 15.6396 15.1054 15.5938C15.7845 15.4634 16.3828 15.1592 16.8357 14.7141C17.2884 14.2691 17.5529 13.7249 17.6007 13.1406C17.6485 12.5562 17.4751 11.9868 17.0993 11.4937L14.8343 8.52303Z"
        fill="currentColor" />
    <path
        d="M4.61433 8.51914C5.28817 8.30153 5.80008 7.84501 6.05572 7.23358C6.29909 6.65176 6.27917 5.99491 5.99946 5.38389C5.7196 4.77326 5.21055 4.27479 4.56604 3.98014C3.88901 3.67074 3.1452 3.62035 2.47247 3.83837C1.11905 4.27587 0.497965 5.68203 1.08813 6.97362C1.55957 8.00165 2.6591 8.65059 3.77075 8.65059C4.0546 8.65059 4.33924 8.60825 4.61433 8.51914Z"
        fill="currentColor" />
    <path
        d="M9.00922 6.1916C10.7012 6.1916 12.0777 4.87308 12.0777 3.25239C12.0777 1.63129 10.7012 0.3125 9.00922 0.3125C7.31745 0.3125 5.94108 1.63129 5.94108 3.25239C5.94108 4.87308 7.31745 6.1916 9.00922 6.1916Z"
        fill="currentColor" />
    <path
        d="M14.3085 6.91371C14.5688 6.98634 14.8344 7.02105 15.0988 7.02105C16.3327 7.02105 17.5352 6.26597 17.9941 5.10556C18.2583 4.43759 18.2409 3.73129 17.9451 3.11692C17.6356 2.47374 17.062 2.00689 16.3299 1.80228C15.5975 1.59767 14.8056 1.68302 14.0997 2.0424C13.4254 2.3857 12.9087 2.94272 12.6448 3.6107C12.0877 5.01981 12.8341 6.50154 14.3085 6.91371Z"
        fill="currentColor" />
    <path
        d="M20.7704 6.5707C19.6036 5.84604 17.8581 6.15973 16.8797 7.27083C15.9022 8.38246 16.0551 9.87692 17.2201 10.6021C17.645 10.8668 18.147 10.9932 18.6609 10.9932C19.5564 10.9932 20.4881 10.6089 21.111 9.90225C22.0882 8.79062 21.9356 7.29615 20.7704 6.5707Z"
        fill="currentColor" />
</svg>