<svg viewBox="0 0 21 18" fill="none" xmlns="http://www.w3.org/2000/svg">
    <path fill-rule="evenodd" clip-rule="evenodd"
        d="M8.69533 5.00012L5.46239 8.25009C5.74051 8.35831 5.97008 8.49094 6.16569 8.60395L6.22835 8.64009C6.59641 8.87008 6.81525 9.00008 7.37231 9.00008C7.92937 9.00008 8.14822 8.87008 8.51627 8.64009L8.52886 8.63266C8.98517 8.36336 9.60069 8.00009 10.6948 8.00009C11.7989 8.00009 12.4157 8.37009 12.8633 8.64009L12.8741 8.6465C13.2359 8.8628 13.4655 9.00008 14.0073 9.00008C14.5544 9.00008 14.7832 8.87008 15.1512 8.64009C15.2706 8.57009 15.4099 8.49009 15.5591 8.41009L9.17281 2.00014C7.63095 0.450155 6.20846 -0.00984108 3.72158 0.000158834V2.50014C5.53203 2.49014 6.59641 2.89013 7.70058 4.00012L8.69533 5.00012ZM5.20306 12.8537C4.84124 12.6374 4.61161 12.5001 4.06983 12.5001C3.52272 12.5001 3.29393 12.6301 2.92587 12.8601L2.89673 12.8769C2.43267 13.1452 1.8188 13.5001 0.737427 13.5001V11.5001C1.29449 11.5001 1.51333 11.3701 1.88139 11.1401C2.32902 10.8701 2.94577 10.5001 4.04994 10.5001C5.15411 10.5001 5.77086 10.8701 6.21849 11.1401L6.22923 11.1465C6.59105 11.3628 6.82068 11.5001 7.36245 11.5001C7.91951 11.5001 8.13836 11.3701 8.50641 11.1401C8.95405 10.8701 9.57079 10.5001 10.675 10.5001C11.7791 10.5001 12.3959 10.8701 12.8435 11.1401L12.8543 11.1465C13.2161 11.3628 13.4457 11.5001 13.9875 11.5001C14.5346 11.5001 14.7634 11.3701 15.1314 11.1401C15.5791 10.8701 16.1958 10.5001 17.3 10.5001C18.4042 10.5001 19.0209 10.8701 19.4685 11.1401L19.4793 11.1465C19.8411 11.3628 20.0707 11.5001 20.6125 11.5001V13.5001C19.5183 13.4901 18.9115 13.1301 18.4638 12.8601L18.4531 12.8537C18.0913 12.6374 17.8617 12.5001 17.3199 12.5001C16.7628 12.5001 16.544 12.6301 16.1759 12.8601C15.7283 13.1301 15.1115 13.5001 14.0074 13.5001C12.9032 13.5001 12.2865 13.1301 11.8388 12.8601L11.8281 12.8537C11.4663 12.6374 11.2366 12.5001 10.6949 12.5001C10.1378 12.5001 9.91896 12.6301 9.5509 12.8601C9.10326 13.1301 8.48652 13.5001 7.38235 13.5001C6.27818 13.5001 5.66143 13.1301 5.2138 12.8601L5.20306 12.8537ZM17.3199 15C16.2157 15 15.599 15.37 15.1513 15.64C14.7833 15.87 14.5545 16 14.0074 16C13.4656 16 13.236 15.8627 12.8741 15.6464L12.8634 15.64C12.4158 15.37 11.799 15 10.6949 15C9.60078 15 8.98526 15.3633 8.52895 15.6326L8.51636 15.64C8.1483 15.87 7.92946 16 7.3724 16C6.81534 16 6.5965 15.87 6.22844 15.64C5.7808 15.37 5.16406 15 4.05989 15C2.96581 15 2.35029 15.3633 1.89398 15.6326L1.88139 15.64C1.51333 15.87 1.29449 16 0.737427 16V18C1.8315 18 2.44703 17.6367 2.90334 17.3674L2.91593 17.36C3.28398 17.13 3.51278 17 4.05989 17C4.607 17 4.83579 17.13 5.20385 17.36C5.65148 17.63 6.26823 18 7.3724 18C8.46648 18 9.082 17.6367 9.53831 17.3674L9.5509 17.36C9.91896 17.13 10.1378 17 10.6949 17C11.2366 17 11.4663 17.1373 11.8281 17.3536L11.8388 17.36C12.2865 17.63 12.9032 18 14.0074 18C15.0921 18 15.6968 17.6429 16.1516 17.3743L16.1759 17.36C16.544 17.13 16.7628 17 17.3199 17C17.8617 17 18.0913 17.1373 18.4531 17.3536L18.4638 17.36C18.9115 17.63 19.5282 18 20.6324 18V16C20.0753 16 19.8565 15.87 19.4884 15.64C19.0408 15.37 18.4241 15 17.3199 15ZM12.6743 2.50017C12.6743 1.11947 13.7877 0.000189441 15.1612 0.000189441C16.5346 0.000189441 17.6481 1.11947 17.6481 2.50017C17.6481 3.88087 16.5346 5.00015 15.1612 5.00015C13.7877 5.00015 12.6743 3.88087 12.6743 2.50017Z"
        fill="currentColor" />
</svg>