<svg viewBox="0 0 20 19" fill="none" xmlns="http://www.w3.org/2000/svg">
    <path
        d="M19.8381 9.28334L18.2794 7.78177C17.8865 7.40438 17.4281 7.09606 16.925 6.87071C17.2285 6.23296 17.386 5.53967 17.3865 4.83807V2.75823C17.3865 2.589 17.2441 2.45179 17.0684 2.45179H14.9095C14.1812 2.45221 13.4614 2.60375 12.7993 2.89613C12.5654 2.41142 12.2453 1.96983 11.8536 1.5913L10.2949 0.089721C10.1707 -0.029907 9.96938 -0.029907 9.84516 0.089721L8.2865 1.5913C7.89477 1.96983 7.57473 2.41142 7.34081 2.89613C6.67886 2.60386 5.95937 2.45229 5.23122 2.45179H3.07232C2.89665 2.45179 2.75422 2.589 2.75422 2.75823V4.83807C2.75466 5.53975 2.91196 6.23312 3.21546 6.87102C2.71231 7.09637 2.25394 7.40469 1.86102 7.78208L0.30236 9.28365C0.178185 9.40332 0.178185 9.5973 0.30236 9.71696L1.86102 11.2185C2.25394 11.5959 2.71231 11.9042 3.21546 12.1296C2.91208 12.7673 2.75474 13.4604 2.75422 14.1619V16.2418C2.75422 16.411 2.89665 16.5482 3.07232 16.5482H5.23122C5.95957 16.5478 6.67934 16.3963 7.34145 16.1039C7.57537 16.5886 7.89541 17.0302 8.28714 17.4087L9.8458 18.9103C9.97001 19.0299 10.1714 19.0299 10.2956 18.9103L11.8542 17.4087C12.246 17.0302 12.566 16.5886 12.7999 16.1039C13.4619 16.3962 14.1814 16.5477 14.9095 16.5482H17.0684C17.2441 16.5482 17.3865 16.411 17.3865 16.2418V14.1619C17.3861 13.4602 17.2288 12.7669 16.9253 12.129C17.4284 11.9036 17.8868 11.5953 18.2797 11.2179L19.8384 9.71635C19.9623 9.59665 19.9621 9.40289 19.8381 9.28334ZM13.0334 3.46735C13.6207 3.20258 14.2611 3.06514 14.9095 3.06468H16.7503V4.83807C16.7501 5.46291 16.6075 6.08009 16.3327 6.64609C15.8707 6.50666 15.3895 6.43568 14.9054 6.43556H14.7782C14.1095 6.43537 13.4483 6.57112 12.8378 6.83394C13.1106 6.2458 13.2515 5.60881 13.2513 4.96463V4.84205C13.2514 4.37584 13.1779 3.9123 13.0334 3.46735ZM14.7782 7.04845H14.9054C15.2811 7.04918 15.655 7.09909 16.0168 7.19677C15.85 7.43947 15.6582 7.66536 15.4442 7.87094L15.3768 7.93591C14.5433 8.74297 13.4094 9.19536 12.2277 9.19233L10.8382 9.19356L11.8536 8.21539C12.6276 7.46571 13.6807 7.0455 14.7782 7.04845ZM12.6151 4.84205V4.96463C12.6181 6.02182 12.1819 7.03627 11.4038 7.78177L10.3885 8.76024V7.42017C10.3853 6.28173 10.8549 5.18933 11.6926 4.38637L11.7601 4.3214C11.9735 4.11532 12.208 3.93054 12.4599 3.76981C12.5619 4.11881 12.6141 4.47953 12.6151 4.84205ZM8.73692 2.02461L10.0704 0.739995L11.4038 2.02461C11.7518 2.36101 12.0344 2.75479 12.2382 3.18726C11.9021 3.38564 11.5909 3.6208 11.3109 3.88809L11.2435 3.95306C10.7239 4.45402 10.3236 5.0579 10.0704 5.72277C9.81721 5.05802 9.41705 4.45429 8.89756 3.95337L8.83012 3.8884C8.55004 3.62099 8.23879 3.38572 7.90256 3.18726C8.10634 2.75483 8.38893 2.36104 8.73692 2.02461ZM7.52562 4.84205C7.52638 4.48007 7.57819 4.11988 7.67958 3.77134C7.93151 3.93203 8.16599 4.11685 8.37939 4.32294L8.44682 4.3879C9.28456 5.19086 9.75415 6.28326 9.751 7.4217V8.76178L8.73565 7.78361C7.95755 7.03746 7.52181 6.02228 7.52562 4.96463V4.84205ZM8.28682 8.21539L9.30249 9.19356H7.91147C6.72975 9.19658 5.59583 8.74419 4.76235 7.93714L4.69491 7.87217C4.48099 7.66658 4.28918 7.4407 4.12234 7.19799C4.48461 7.09978 4.85905 7.04948 5.23535 7.04845H5.36259C6.46001 7.04558 7.51298 7.46579 8.28682 8.21539ZM3.39041 3.06468H5.23122C5.87981 3.06495 6.52045 3.20231 7.10797 3.46704C6.96323 3.91207 6.88956 4.37568 6.88944 4.84205V4.96463C6.88924 5.60881 7.03015 6.2458 7.30296 6.83394C6.69246 6.57112 6.03126 6.43537 5.36259 6.43556H5.23535C4.75141 6.43552 4.27026 6.50627 3.80839 6.64547C3.53355 6.0797 3.39089 5.46272 3.39041 4.83807V3.06468ZM2.3108 10.7846L0.977354 9.5L2.3108 8.21539C2.65999 7.88014 3.06874 7.6079 3.51765 7.41158C3.72357 7.73538 3.96767 8.03512 4.24513 8.30487L4.31256 8.36983C4.83257 8.87045 5.45941 9.25607 6.14955 9.5C5.45953 9.74389 4.83284 10.1294 4.31288 10.6299L4.24545 10.6948C3.96787 10.9646 3.72365 11.2645 3.51765 11.5884C3.06878 11.3921 2.66003 11.1199 2.3108 10.7846ZM7.10733 15.5327C6.52005 15.7974 5.87961 15.9349 5.23122 15.9353H3.39041V14.1619C3.39069 13.5371 3.53327 12.9199 3.80807 12.3539C4.27002 12.4933 4.75125 12.5643 5.23535 12.5644H5.36259C6.03126 12.5646 6.69246 12.4289 7.30296 12.1661C7.03015 12.7542 6.88924 13.3912 6.88944 14.0354V14.1579C6.8894 14.6242 6.96288 15.0877 7.10733 15.5327ZM5.36259 11.9516H5.23535C4.8596 11.9508 4.48572 11.9009 4.12393 11.8032C4.29073 11.5605 4.48258 11.3346 4.6965 11.1291L4.76394 11.0641C5.59742 10.257 6.73134 9.80464 7.91306 9.80767L9.30249 9.80644L8.28714 10.7846C7.51322 11.5343 6.46009 11.9545 5.36259 11.9516ZM7.52562 14.1579V14.0354C7.52264 12.9782 7.95883 11.9637 8.73692 11.2182L9.75228 10.2398V11.5798C9.75542 12.7183 9.28583 13.8107 8.44809 14.6136L8.38066 14.6786C8.16726 14.8847 7.93278 15.0695 7.68085 15.2302C7.5789 14.8812 7.5267 14.5205 7.52562 14.1579ZM11.4038 16.9754L10.0704 18.26L8.73692 16.9754C8.38909 16.6394 8.1065 16.2462 7.90256 15.8143C8.23875 15.6154 8.54988 15.3797 8.82981 15.1119L8.89724 15.0469C9.41685 14.546 9.81717 13.9421 10.0704 13.2772C10.3235 13.942 10.7237 14.5457 11.2432 15.0466L11.3106 15.1116C11.5906 15.3794 11.9019 15.6151 12.2382 15.814C12.0343 16.246 11.7517 16.6393 11.4038 16.9754ZM12.6151 14.1579C12.6143 14.5199 12.5626 14.8801 12.4612 15.2287C12.2092 15.068 11.9748 14.8831 11.7614 14.6771L11.6939 14.6121C10.8562 13.8091 10.3866 12.7167 10.3897 11.5783V10.2398L11.4051 11.2179C12.1828 11.9637 12.6185 12.9782 12.6151 14.0354V14.1579ZM11.8539 10.7846L10.8382 9.80644H12.2293C13.411 9.80342 14.5449 10.2558 15.3784 11.0629L15.4458 11.1278C15.6597 11.3334 15.8516 11.5593 16.0184 11.802C15.6561 11.9002 15.2817 11.9506 14.9054 11.9516H14.7782C13.6808 11.9544 12.6278 11.5342 11.8539 10.7846ZM16.7503 15.9353H14.9095C14.2609 15.9351 13.6203 15.7977 13.0328 15.533C13.1775 15.0879 13.2512 14.6243 13.2513 14.1579V14.0354C13.2515 13.3912 13.1106 12.7542 12.8378 12.1661C13.4483 12.4289 14.1095 12.5646 14.7782 12.5644H14.9054C15.3893 12.5645 15.8705 12.4937 16.3324 12.3545C16.6072 12.9203 16.7499 13.5373 16.7503 14.1619V15.9353ZM17.8299 10.7846C17.4812 11.1197 17.073 11.3919 16.6247 11.5884C16.4183 11.2645 16.1736 10.9648 15.8956 10.6951L15.8282 10.6302C15.3082 10.1296 14.6813 9.74393 13.9912 9.5C14.6812 9.25611 15.3079 8.8706 15.8279 8.37014L15.8953 8.30517C16.1733 8.03543 16.418 7.73557 16.6244 7.41158C17.0727 7.60805 17.4809 7.88029 17.8296 8.21539L19.1634 9.5L17.8299 10.7846Z"
        fill="currentColor" />
</svg>