<svg width="679" height="20" viewBox="0 0 679 20" fill="none" xmlns="http://www.w3.org/2000/svg">
<line y1="-0.5" x2="661.732" y2="-0.5" transform="matrix(1 0.000128807 1.62373e-05 1 9.4989 11.9497)" stroke="#DBDBDB" stroke-dasharray="5 4"/>
<path opacity="0.6" d="M13.2615 10.3923C13.2758 13.7069 10.601 16.4048 7.2875 16.4187C3.97399 16.4327 1.27594 13.7573 1.26161 10.4428C1.24728 7.12824 3.9221 4.4303 7.23561 4.41637C10.5491 4.40244 13.2472 7.07781 13.2615 10.3923Z" fill="#F7F9FC" stroke="#0A1F39" stroke-width="2"/>
<path opacity="0.6" d="M677.217 10.3271C677.24 13.6415 674.571 16.3353 671.258 16.344C667.944 16.3528 665.24 13.6733 665.217 10.3588C665.194 7.0443 667.863 4.35058 671.176 4.34182C674.49 4.33306 677.194 7.01257 677.217 10.3271Z" fill="#F7F9FC" stroke="#0A1F39" stroke-width="2"/>
</svg>
